<?xml version="1.0" encoding="UTF-8"?>
<svg xmlns="http://www.w3.org/2000/svg" xmlns:xlink="http://www.w3.org/1999/xlink" width="50px" height="50px" viewBox="0 0 50 50" version="1.1">
<g id="surface1">
<path style=" stroke:none;fill-rule:nonzero;fill:rgb(0%,0%,0%);fill-opacity:1;" d="M 46.421875 20.460938 C 47.550781 17.054688 47.160156 13.328125 45.347656 10.230469 C 42.617188 5.484375 37.136719 3.039062 31.785156 4.1875 C 28.765625 0.832031 24.1875 -0.660156 19.773438 0.273438 C 15.359375 1.207031 11.777344 4.421875 10.375 8.710938 C 6.859375 9.433594 3.824219 11.632812 2.046875 14.753906 C -0.710938 19.492188 -0.0859375 25.472656 3.59375 29.539062 C 2.460938 32.941406 2.847656 36.671875 4.660156 39.769531 C 7.390625 44.515625 12.875 46.960938 18.230469 45.8125 C 20.613281 48.492188 24.039062 50.019531 27.625 50 C 33.113281 50.003906 37.972656 46.460938 39.648438 41.238281 C 43.164062 40.515625 46.199219 38.3125 47.976562 35.195312 C 50.703125 30.464844 50.074219 24.519531 46.421875 20.460938 Z M 27.625 46.726562 C 25.433594 46.730469 23.3125 45.960938 21.632812 44.558594 L 21.929688 44.390625 L 31.882812 38.644531 C 32.386719 38.351562 32.695312 37.8125 32.703125 37.226562 L 32.703125 23.191406 L 36.910156 25.625 C 36.953125 25.648438 36.980469 25.6875 36.988281 25.734375 L 36.988281 37.363281 C 36.976562 42.53125 32.792969 46.71875 27.625 46.726562 Z M 7.5 38.132812 C 6.398438 36.234375 6.007812 34.011719 6.382812 31.855469 L 6.679688 32.03125 L 16.644531 37.777344 C 17.148438 38.070312 17.769531 38.070312 18.273438 37.777344 L 30.445312 30.761719 L 30.445312 35.617188 C 30.441406 35.671875 30.414062 35.71875 30.375 35.75 L 20.292969 41.5625 C 15.8125 44.144531 10.085938 42.609375 7.5 38.132812 Z M 4.875 16.449219 C 5.984375 14.539062 7.726562 13.085938 9.804688 12.339844 L 9.804688 24.167969 C 9.796875 24.75 10.105469 25.289062 10.613281 25.578125 L 22.726562 32.5625 L 18.515625 35 C 18.472656 35.023438 18.414062 35.023438 18.371094 35 L 8.304688 29.195312 C 3.835938 26.601562 2.300781 20.882812 4.875 16.398438 Z M 39.453125 24.484375 L 27.300781 17.425781 L 31.5 15 C 31.546875 14.976562 31.601562 14.976562 31.648438 15 L 41.710938 20.816406 C 44.851562 22.628906 46.664062 26.089844 46.359375 29.703125 C 46.058594 33.316406 43.699219 36.433594 40.300781 37.699219 L 40.300781 25.871094 C 40.28125 25.289062 39.960938 24.761719 39.453125 24.480469 Z M 43.640625 18.183594 L 43.34375 18.007812 L 33.398438 12.210938 C 32.894531 11.914062 32.269531 11.914062 31.765625 12.210938 L 19.601562 19.226562 L 19.601562 14.367188 C 19.597656 14.320312 19.617188 14.269531 19.660156 14.242188 L 29.726562 8.4375 C 32.875 6.621094 36.785156 6.789062 39.765625 8.871094 C 42.746094 10.949219 44.257812 14.5625 43.640625 18.144531 Z M 17.304688 26.796875 L 13.097656 24.375 C 13.054688 24.347656 13.023438 24.304688 13.015625 24.253906 L 13.015625 12.65625 C 13.023438 9.023438 15.125 5.71875 18.414062 4.179688 C 21.707031 2.636719 25.589844 3.136719 28.382812 5.460938 L 28.085938 5.625 L 18.132812 11.375 C 17.628906 11.667969 17.320312 12.207031 17.316406 12.792969 Z M 19.59375 21.871094 L 25.011719 18.746094 L 30.445312 21.871094 L 30.445312 28.117188 L 25.03125 31.242188 L 19.601562 28.117188 Z M 19.59375 21.871094 "/>
</g>
</svg>
