<?xml version="1.0" encoding="UTF-8"?>
<svg xmlns="http://www.w3.org/2000/svg" xmlns:xlink="http://www.w3.org/1999/xlink" width="50px" height="50px" viewBox="0 0 50 50" version="1.1">
<g id="surface1">
<path style=" stroke:none;fill-rule:nonzero;fill:rgb(0%,0%,0%);fill-opacity:1;" d="M 6.253906 23.359375 C 5.105469 23.226562 5.019531 21.6875 3.550781 21.824219 C 2.835938 21.824219 2.175781 22.121094 2.175781 22.773438 C 2.175781 23.761719 3.695312 23.851562 4.613281 24.101562 C 6.175781 24.574219 7.6875 24.898438 7.6875 26.597656 C 7.6875 28.753906 5.996094 29.503906 3.761719 29.503906 C 1.894531 29.503906 0 28.839844 0 27.121094 C 0 26.648438 0.457031 26.273438 0.898438 26.273438 C 1.460938 26.273438 1.65625 26.511719 1.851562 26.902344 C 2.285156 27.667969 2.769531 28.074219 3.976562 28.074219 C 4.738281 28.074219 5.519531 27.785156 5.519531 27.121094 C 5.519531 26.179688 4.5625 25.976562 3.570312 25.746094 C 1.808594 25.253906 0.296875 25 0.117188 23.046875 C -0.0703125 19.714844 6.871094 19.589844 7.269531 22.511719 C 7.261719 23.039062 6.769531 23.359375 6.253906 23.359375 Z M 14.507812 20.4375 C 16.949219 20.4375 18.332031 22.476562 18.332031 24.992188 C 18.332031 27.515625 16.988281 29.542969 14.507812 29.542969 C 13.132812 29.542969 12.273438 28.957031 11.652344 28.058594 L 11.652344 31.386719 C 11.652344 32.390625 11.332031 32.875 10.601562 32.875 C 9.710938 32.875 9.546875 32.304688 9.546875 31.386719 L 9.546875 21.703125 C 9.546875 20.914062 9.878906 20.429688 10.601562 20.429688 C 11.28125 20.429688 11.652344 20.964844 11.652344 21.703125 L 11.652344 21.976562 C 12.34375 21.109375 13.132812 20.4375 14.507812 20.4375 Z M 13.929688 27.8125 C 15.359375 27.8125 15.996094 26.496094 15.996094 24.957031 C 15.996094 23.453125 15.351562 22.105469 13.929688 22.105469 C 12.445312 22.105469 11.757812 23.328125 11.757812 24.957031 C 11.757812 26.546875 12.453125 27.8125 13.929688 27.8125 Z M 19.988281 22.816406 C 19.988281 21.066406 22.003906 20.4375 23.953125 20.4375 C 26.699219 20.4375 27.828125 21.238281 27.828125 23.886719 L 27.828125 26.433594 C 27.828125 27.039062 28.203125 28.246094 28.203125 28.609375 C 28.203125 29.164062 27.695312 29.511719 27.148438 29.511719 C 26.546875 29.511719 26.097656 28.796875 25.773438 28.289062 C 24.882812 29 23.9375 29.511719 22.492188 29.511719 C 20.898438 29.511719 19.640625 28.566406 19.640625 27.011719 C 19.640625 25.636719 20.625 24.847656 21.816406 24.574219 C 21.816406 24.582031 25.636719 23.675781 25.636719 23.667969 C 25.636719 22.492188 25.222656 21.976562 23.988281 21.976562 C 22.902344 21.976562 22.351562 22.273438 21.925781 22.925781 C 21.585938 23.421875 21.628906 23.714844 20.972656 23.714844 C 20.445312 23.707031 19.988281 23.351562 19.988281 22.816406 Z M 23.25 28.074219 C 24.921875 28.074219 25.628906 27.191406 25.628906 25.433594 L 25.628906 25.058594 C 25.179688 25.210938 23.359375 25.664062 22.867188 25.738281 C 22.339844 25.839844 21.816406 26.230469 21.816406 26.851562 C 21.832031 27.53125 22.527344 28.074219 23.25 28.074219 Z M 35.542969 17.117188 C 37.902344 17.117188 40.460938 18.527344 40.460938 20.769531 C 40.46875 21.042969 40.367188 21.308594 40.179688 21.503906 C 39.992188 21.703125 39.730469 21.816406 39.457031 21.824219 C 38.683594 21.824219 38.574219 21.40625 38.234375 20.820312 C 37.667969 19.773438 36.992188 19.078125 35.535156 19.078125 C 33.273438 19.0625 32.261719 20.996094 32.261719 23.410156 C 32.261719 25.839844 33.105469 27.589844 35.441406 27.589844 C 36.992188 27.589844 37.851562 26.691406 38.292969 25.527344 C 38.472656 24.992188 38.796875 24.472656 39.464844 24.472656 C 39.992188 24.472656 40.519531 25.007812 40.519531 25.585938 C 40.519531 27.964844 38.089844 29.613281 35.59375 29.613281 C 32.859375 29.613281 31.3125 28.457031 30.460938 26.539062 C 30 25.542969 29.765625 24.457031 29.785156 23.359375 C 29.765625 19.671875 31.914062 17.117188 35.542969 17.117188 Z M 49.046875 20.4375 C 49.652344 20.4375 50 20.828125 50 21.441406 C 50 21.6875 49.804688 22.179688 49.730469 22.445312 L 46.824219 30.078125 C 46.175781 31.734375 45.695312 32.882812 43.492188 32.882812 C 42.449219 32.882812 41.539062 32.789062 41.539062 31.882812 C 41.539062 31.355469 41.9375 31.089844 42.492188 31.089844 C 42.589844 31.089844 42.761719 31.140625 42.863281 31.140625 C 43.023438 31.140625 43.136719 31.191406 43.238281 31.191406 C 44.339844 31.191406 44.496094 30.0625 44.886719 29.28125 L 42.082031 22.339844 C 41.921875 21.964844 41.808594 21.710938 41.808594 21.492188 C 41.808594 20.878906 42.289062 20.4375 42.921875 20.4375 C 43.636719 20.4375 43.917969 20.996094 44.097656 21.609375 L 45.949219 27.113281 L 47.800781 22.027344 C 48.078125 21.238281 48.105469 20.4375 49.046875 20.4375 Z M 49.046875 20.4375 "/>
</g>
</svg>
