<?xml version="1.0" encoding="UTF-8"?>
<svg xmlns="http://www.w3.org/2000/svg" xmlns:xlink="http://www.w3.org/1999/xlink" width="50px" height="50px" viewBox="0 0 50 50" version="1.1">
<g id="surface1">
<path style=" stroke:none;fill-rule:nonzero;fill:rgb(100%,29.411766%,29.411766%);fill-opacity:1;" d="M 24.996094 28.328125 L 16.230469 23.695312 L 1.015625 15.652344 C 1.003906 15.640625 0.976562 15.640625 0.960938 15.640625 C 0.40625 15.375 -0.164062 15.933594 0.0429688 16.488281 L 7.796875 36.261719 L 7.796875 36.265625 C 7.808594 36.285156 7.8125 36.304688 7.824219 36.324219 C 8.140625 37.058594 8.835938 37.515625 9.589844 37.695312 C 9.652344 37.710938 9.699219 37.722656 9.777344 37.738281 C 9.851562 37.753906 9.960938 37.777344 10.050781 37.785156 C 10.066406 37.785156 10.082031 37.785156 10.097656 37.785156 L 10.105469 37.785156 C 10.117188 37.789062 10.128906 37.789062 10.140625 37.789062 L 10.15625 37.789062 C 10.164062 37.789062 10.175781 37.789062 10.1875 37.789062 L 10.203125 37.789062 C 10.214844 37.792969 10.226562 37.792969 10.238281 37.792969 C 20.054688 38.863281 29.960938 38.863281 39.78125 37.792969 C 39.898438 37.792969 40.011719 37.785156 40.125 37.777344 C 40.160156 37.773438 40.195312 37.769531 40.230469 37.761719 C 40.234375 37.761719 40.238281 37.761719 40.242188 37.761719 C 40.265625 37.757812 40.292969 37.753906 40.316406 37.75 C 40.347656 37.746094 40.382812 37.738281 40.417969 37.730469 C 40.488281 37.714844 40.519531 37.707031 40.613281 37.671875 C 40.707031 37.640625 40.863281 37.582031 40.960938 37.535156 C 41.0625 37.488281 41.128906 37.445312 41.210938 37.394531 C 41.3125 37.328125 41.410156 37.261719 41.507812 37.191406 C 41.546875 37.15625 41.578125 37.136719 41.609375 37.109375 L 41.589844 37.097656 Z M 24.996094 28.328125 "/>
<path style=" stroke:none;fill-rule:nonzero;fill:rgb(49.019608%,20.784314%,23.137255%);fill-opacity:1;" d="M 49.003906 15.652344 L 48.988281 15.652344 L 33.769531 23.695312 L 42.230469 36.296875 L 49.960938 16.488281 L 49.960938 16.460938 C 50.15625 15.875 49.558594 15.347656 49.003906 15.652344 "/>
<path style=" stroke:none;fill-rule:nonzero;fill:rgb(74.117649%,25.098041%,26.274511%);fill-opacity:1;" d="M 25.808594 11.832031 C 25.417969 11.261719 24.570312 11.261719 24.195312 11.832031 L 16.230469 23.695312 L 24.996094 28.328125 L 41.609375 37.109375 C 41.710938 37.003906 41.796875 36.90625 41.882812 36.800781 C 42.007812 36.648438 42.125 36.480469 42.230469 36.296875 L 33.769531 23.695312 Z M 25.808594 11.832031 "/>
</g>
</svg>
